# xmcd CD Database Entry
#
# Track frame offsets:
# 150
# 52505
# 108678
# 124340
# 150165
# 171510
# 218760
# 256388
#
# Disc length: 3618 seconds
#
# Revision: 1
# Processed by: cddbd v1.4b41PL1 Copyright (c) Steve Scherf et al.
# Submitted via: tcd 2.0b
#
DISCID=660e2008
DTITLE=Berlioz - Requiem - Symphonie Fantastique CD1
DYEAR=1900
DGENRE=
TTITLE0=Requiem et Kyrie
TTITLE1=Dies irae
TTITLE2=Quid sum miser
TTITLE3=Rex tremendae
TTITLE4=Quaerens me
TTITLE5=Lacrymosa
TTITLE6=Offertorium
TTITLE7=Hostias
EXTD=
EXTT0=
EXTT1=
EXTT2=
EXTT3=
EXTT4=
EXTT5=
EXTT6=
EXTT7=
PLAYORDER=
